<?xml version="1.0" encoding="utf-8"?>
<!-- Generator: Adobe Illustrator 21.1.0, SVG Export Plug-In . SVG Version: 6.00 Build 0)  -->
<svg version="1.1" id="Layer_1" xmlns="http://www.w3.org/2000/svg" xmlns:xlink="http://www.w3.org/1999/xlink" x="0px" y="0px"
	 viewBox="0 0 462.8 124.9" style="enable-background:new 0 0 462.8 124.9;" xml:space="preserve">
<g>
	<g>
		<path d="M82.8,103.9c-15.4,0-32-6.8-47.9-19.7C23,74.6,15.7,65.1,15.4,64.7l-1.5-1.9l1.5-1.9c0.3-0.4,7.6-9.9,19.5-19.5
			c15.9-12.9,32.5-19.7,47.9-19.7c15.4,0,32,6.8,47.9,19.7c11.9,9.6,19.2,19.1,19.5,19.5l1.5,1.9l-1.5,1.9
			c-0.3,0.4-7.6,9.9-19.5,19.5C114.8,97.1,98.2,103.9,82.8,103.9z M22,62.8c6.4,7.6,31.5,34.8,60.8,34.8s54.4-27.3,60.8-34.8
			c-6.4-7.6-31.5-34.8-60.8-34.8S28.4,55.2,22,62.8z"/>
	</g>
	<g>
		<circle cx="82.8" cy="62.8" r="24.7"/>
	</g>
	<g>
		<path d="M17.1,64.8c-0.8,0-1.6-0.3-2.2-0.9L0.9,50c-1.2-1.2-1.2-3.2,0-4.5c1.2-1.2,3.2-1.2,4.5,0l13.9,13.9c1.2,1.2,1.2,3.2,0,4.5
			C18.7,64.5,17.9,64.8,17.1,64.8z"/>
	</g>
	<g>
		<path d="M49.4,37.6c-1.1,0-2.2-0.6-2.7-1.6L36.8,19c-0.9-1.5-0.4-3.5,1.2-4.3c1.5-0.9,3.5-0.4,4.3,1.2l9.9,17.1
			c0.9,1.5,0.4,3.5-1.2,4.3C50.5,37.5,49.9,37.6,49.4,37.6z"/>
	</g>
	<g>
		<path d="M148.5,64.8c-0.8,0-1.6-0.3-2.2-0.9c-1.2-1.2-1.2-3.2,0-4.5l13.9-13.9c1.2-1.2,3.2-1.2,4.5,0c1.2,1.2,1.2,3.2,0,4.5
			l-13.9,13.9C150.1,64.5,149.3,64.8,148.5,64.8z"/>
	</g>
	<g>
		<path d="M116.2,37.6c-0.5,0-1.1-0.1-1.6-0.4c-1.5-0.9-2-2.8-1.2-4.3l9.9-17.1c0.9-1.5,2.8-2,4.3-1.2c1.5,0.9,2,2.8,1.2,4.3L119,36
			C118.4,37,117.3,37.6,116.2,37.6z"/>
	</g>
	<g>
		<path d="M82.8,26c-1.7,0-3.2-1.4-3.2-3.2V3.2c0-1.7,1.4-3.2,3.2-3.2C84.6,0,86,1.4,86,3.2v19.7C86,24.6,84.6,26,82.8,26z"/>
	</g>
	<g>
		<path d="M39.5,110.7c-0.5,0-1.1-0.1-1.6-0.4c-1.5-0.9-2-2.8-1.2-4.3l9.9-17.1c0.9-1.5,2.8-2,4.3-1.2c1.5,0.9,2,2.8,1.2,4.3
			l-9.9,17.1C41.7,110.1,40.6,110.7,39.5,110.7z"/>
	</g>
	<g>
		<path d="M126.1,110.7c-1.1,0-2.2-0.6-2.7-1.6l-9.9-17.1c-0.9-1.5-0.4-3.5,1.2-4.3c1.5-0.9,3.5-0.4,4.3,1.2l9.9,17.1
			c0.9,1.5,0.4,3.5-1.2,4.3C127.2,110.6,126.6,110.7,126.1,110.7z"/>
	</g>
	<g>
		<path d="M82.8,124.9c-1.7,0-3.2-1.4-3.2-3.2V102c0-1.7,1.4-3.2,3.2-3.2c1.7,0,3.2,1.4,3.2,3.2v19.7
			C86,123.5,84.6,124.9,82.8,124.9z"/>
	</g>
</g>
<g>
	<g>
		<path d="M237.1,69.1c-1,4.8-0.5,10-0.4,14.9c0.1,5,0,10.1,0.8,15c0.3,2,3.2,1.3,3.3-0.5c0.4-5.2-0.1-10.5-0.3-15.7
			c-0.2-4.6,0-9.3-1.3-13.8C239,68,237.3,67.9,237.1,69.1L237.1,69.1z"/>
	</g>
	<g>
		<path d="M235.7,53.2c-1.6,0.6-2.9,1.3-3.6,2.9c-0.7,1.5-0.5,3.3,0.3,4.7c1.7,3,5.6,4.2,8.5,2.1c2.5-1.9,3.4-5.6,1.6-8.2
			c-1.7-2.5-5.6-3.6-8.1-1.7c-1.1,0.9-0.5,2.8,1,2.4c2.3-0.5,5.7,1.4,3.6,4c-0.9,1.1-2.2,1.1-3.2,0.1c-1.2-1.3-0.5-3.2,0.8-4.1
			C237.7,54.7,237.1,52.7,235.7,53.2L235.7,53.2z"/>
	</g>
	<g>
		<path d="M264.3,70.9c-0.8-8.8-17.3-3.5-19.4,2.4c-1.6,4.5,4.1,6.6,7.3,8.2c2.7,1.4,5.5,2.8,8,4.6c1.7,1.2,3.7,2.8,4.3,4.9
			c1.9,6.7-9.6,7.8-11.1,1.8c-0.6-2.5-4.3-1.4-3.8,1.1c2,10,21.5,8.9,19.5-2c-1-5.4-6.1-9.1-10.6-11.6c-2.1-1.2-7.3-2.6-8.5-4.6
			c-2.7-4.6,10.9-8,12.2-4.6C262.6,72.3,264.5,72.3,264.3,70.9L264.3,70.9z"/>
	</g>
	<g>
		<path d="M280,66.8c0.1-0.1,0.1-0.2,0.2-0.3c-0.6,0.1-1.1,0.3-1.7,0.4c-0.9-0.6,0.1-1.3-0.6-0.5c-0.7,0.7-0.9,3-1.1,3.9
			c-0.7,2.6-1.2,5.3-1.6,8c-0.6,4.1-1.1,8.6,0.4,12.5c2,5.3,8.5,8.9,13.3,4.8c1.3-1.1-0.1-3.2-1.6-2.8c-14.2,4.1-6.3-20.7-5.6-26.6
			c0.1-0.6-0.4-1.3-0.9-1.6c-0.1-0.1-0.2-0.1-0.4-0.2c-0.4-0.3-1.1-0.3-1.5,0c-0.1,0.1-0.2,0.2-0.4,0.3c-0.4,0.3-0.7,0.8-0.6,1.4
			c0,0.1,0.1,0.2,0.1,0.3C278.4,67.5,279.5,67.5,280,66.8L280,66.8z"/>
	</g>
	<g>
		<path d="M270.4,77.9c-0.1-0.1-0.1-0.1-0.2-0.2c-0.2-0.3-0.7-0.4-1.1-0.3c-0.1,0.1-0.3,0.1-0.4,0.2c-0.9,0.2-1.4,1.4-0.9,2.2
			c1.7,2.4,5.6,1,8.1,0.7c4.8-0.7,9.9-1.7,14.3-3.8c2.1-1,0.6-4-1.5-3.5c-3.2,0.7-6.3,1.8-9.4,2.6c-1.5,0.4-2.9,0.7-4.4,1
			c-0.9,0.2-4.4,1.4-5.1,1c0.1,0.6,0.2,1.2,0.2,1.8c-0.2,0-0.4,0.1-0.6,0.1C270.4,80,271.1,78.6,270.4,77.9L270.4,77.9z"/>
	</g>
	<g>
		<path d="M296.1,73.4c-1.6,2.9-1.6,6.4-1.9,9.6c-0.4,4.1-1.1,8.3-1.1,12.4c0,2.1,3.3,2.7,3.8,0.5c0.7-3.7,0.9-7.5,1.2-11.3
			c0.3-3.6,1.2-7.6,0.1-11C297.8,72.8,296.6,72.6,296.1,73.4L296.1,73.4z"/>
	</g>
	<g>
		<path d="M294.9,77.9c1.1-2,2.2-3.9,4-5.4c1.3-1.1,2.7-1.8,4.3-2.3c2.5,1.4,2.9,3,1.1,4.9c-2.1,3.4-6.2,5.1-8.2,8.3
			c-1,1.6-0.8,3.2,0.6,4.5c1.1,1.1,3.1,1.5,4.4,2.4c2.3,1.6,3.8,3.7,5.1,6.1c1.3,2.2,4.4,0.3,3.4-2c-1.1-2.5-2.7-4.6-4.9-6.4
			c-0.8-0.7-2.2-1.2-3-1.9c-1.6-1.8-1.2-0.1-0.2-2c0.6-1.3,2.8-2.5,3.7-3.7c0.8-1,1.7-2.1,2.4-3.2c1.1-1.9,2-4,1.6-6.2
			c-0.7-3.6-3.8-4.7-7-3.6c-4.5,1.4-7.9,5.5-8.8,10C293.1,78.2,294.4,78.9,294.9,77.9L294.9,77.9z"/>
	</g>
	<g>
		<path d="M311.9,71.8c1.2,6.6,4.5,14.1,8.5,19.5c1.5,2.1,4.7,0.3,3.5-2c-1.5-3.1-3.3-6.1-4.8-9.2c-1.5-3.1-2.6-6.4-4-9.5
			C314.2,68.6,311.6,70,311.9,71.8L311.9,71.8z"/>
	</g>
	<g>
		<path d="M327.7,66c-5.8,17.3-10.8,35.4-15.5,53c-0.6,2.2,2.7,3.1,3.4,0.9c6.2-17,11.5-35.5,14.6-53.3
			C330.4,65.1,328.2,64.4,327.7,66L327.7,66z"/>
	</g>
	<g>
		<path d="M352,45.8c-0.6,16-2.3,32.1-2.7,48.1c-0.1,2,3,2.4,3.5,0.5c3.4-15.4,3.6-32.8,2.7-48.5C355.4,43.6,352.1,43.6,352,45.8
			L352,45.8z"/>
	</g>
	<g>
		<path d="M349.7,49.9c3-1.7,6.1-3.4,9.3-4.8c5-2.1,8.1-3.3,13-0.4c5.3,3.1,5.8,7.1,4.6,13.1c-0.6,3.1-1.9,6-3.4,8.8
			c-5.9,10.9-15.3,19.9-24.2,28.4c-1.8,1.7,0.9,4.3,2.7,2.7c12-10.6,30.5-28.1,29-45.9c-1.6-19.3-22.4-11.5-32.5-4.2
			C346.9,48.6,348.2,50.8,349.7,49.9L349.7,49.9z"/>
	</g>
	<g>
		<path d="M382.5,74.1c0.2-0.2,0.4-0.5,0.6-0.7c-0.7-0.7-1.4-1.4-2.1-2.1c-2,3.4-3.2,7.2-4.1,11.1c-0.6,2.6-1.5,5.7,0,8.2
			c3.2,5.3,9.8,2.6,13.4-0.4c1.7-1.4-0.5-3.7-2.2-2.9c-1.7,0.8-3.7,2.2-5.6,2c-3.2-0.3-2.1-3.8-1.7-5.9c0.7-3.7,2-7.3,3-11
			c0.5-1.8-1.8-2.5-2.8-1.2c-0.6,0.8-0.6,0.8-0.8,1.8C379.9,74.5,381.7,75.4,382.5,74.1L382.5,74.1z"/>
	</g>
	<g>
		<path d="M378.1,76.4c2.4-1.4,4.8-2.8,7.2-4.2c2.2-1.3,4.7-2.4,6.4-4.3c0.9-1,0-2.9-1.4-2.4c-2.4,0.7-4.5,2.5-6.6,3.9
			c-2.3,1.5-4.6,3.1-6.9,4.6C375.3,75.1,376.6,77.3,378.1,76.4L378.1,76.4z"/>
	</g>
	<g>
		<path d="M378.2,84.7c3.4-1,6.6-2.4,9.6-4.2c1.8-1.1,0.2-3.9-1.6-2.8c-2.8,1.6-5.7,3-8.7,4.2C375.7,82.5,376.4,85.2,378.2,84.7
			L378.2,84.7z"/>
	</g>
	<g>
		<path d="M404.1,69.7c1.1-2.8-1.5-3.6-3.8-3.4c-3.5,0.4-6.6,2.4-8.9,4.9c-1,1.1-0.8,2.8,0.5,3.6c3.2,1.9,6.7,3.7,9.8,5.8
			c5.3,3.6-2.7,3.8-5.4,3.7c-1.6-0.1-1.9,2-0.8,2.8c3.7,2.7,12.3,1.6,12.8-4c0.2-2.4-1.6-4.4-3.4-5.7c-3.3-2.5-7.2-4.5-10.7-6.6
			c0.2,1.2,0.3,2.4,0.5,3.6c1.1-1.3,2.2-2.3,3.7-3.2c0.5-0.3,3.3-1.9,3.9-1.5c-0.2-0.4-0.5-0.9-0.7-1.3c0,0.2,0,0.5,0,0.7
			C401.5,70.9,403.5,71.1,404.1,69.7L404.1,69.7z"/>
	</g>
	<g>
		<path d="M411.5,69.4c0.2,5.6,0.3,11.4,0.9,16.9c0.2,1.8,3.1,2.6,3.5,0.5c1-5.6,0.4-12.3-1.1-17.8
			C414.2,67.2,411.4,67.5,411.5,69.4L411.5,69.4z"/>
	</g>
	<g>
		<path d="M410.5,53.4c-2,1.4-3.2,3.9-2.4,6.3c0.8,2.2,3.3,3.4,5.5,2.8c2.4-0.7,3.7-3.3,2.5-5.6c-1.1-2.1-4.3-3.5-6.5-2.5
			c-1.5,0.7-0.9,2.9,0.4,3.4c0.5,0.2,1.1,0.1,1.6,0.3c0.4,0.1,0.7,0.4,1,0.6c0.1,0,0.2,0.1,0,0.2c0.3-0.3-0.1-0.1-0.3-0.1
			c-0.3,0-0.7,0-0.9-0.6c-0.3-0.9,0.2-1.9,0.8-2.5C413.4,54.6,412,52.4,410.5,53.4L410.5,53.4z"/>
	</g>
	<g>
		<path d="M435.9,70.5c0.1-0.1,0.3-0.2,0.4-0.4c0.5-0.4,0.8-1.3,0.5-1.9c-1.9-4.9-7-3.3-10.2-0.5c-3.6,3.1-5.8,8-4.6,12.8
			c1.1,4.1,4.7,7.8,9.1,7.9c4.1,0.1,8.9-2.8,8.8-7.3c0-2-2.6-2.6-3.7-1c-1.2,1.7-2.2,3.4-4.5,3.5c-2.6,0.2-4.5-2-5.2-4.3
			c-0.9-3.4,3.3-12,7.3-8.7C434.5,71.1,435.2,71.1,435.9,70.5L435.9,70.5z"/>
	</g>
	<g>
		<path d="M431.4,80.5c3.5-0.7,7-1.2,10.4-2.3c1.3-0.5,1.1-3.6-0.3-3.4c-3.6,0.6-7.1,2-10.6,3.1C429.7,78.3,430.2,80.7,431.4,80.5
			L431.4,80.5z"/>
	</g>
	<g>
		<path d="M445.5,67c0.1,7.2-0.2,15.7,1.7,22.6c0.6,2.4,3.7,1.6,4-0.5c0.9-6.9-0.6-15.2-1.5-22.1C449.3,64.4,445.5,64.2,445.5,67
			L445.5,67z"/>
	</g>
	<g>
		<path d="M445.9,65.7c3.1,7.7,7.1,16.2,11.9,22.9c1.2,1.7,4.6,0.7,3.7-1.5c-3.1-7.7-8.2-15.6-13.1-22.4
			C447.5,63.6,445.2,64.2,445.9,65.7L445.9,65.7z"/>
	</g>
	<g>
		<path d="M459.9,63.1c-1.5,8.6-2,17.7-2.3,26.5c-0.1,2.6,3.7,2.5,3.9,0c0.9-8.5,1.5-17.5,1.2-26.1
			C462.7,61.9,460.2,61.4,459.9,63.1L459.9,63.1z"/>
	</g>
	<g>
		<path d="M191.9,95c3.5-18.9,4.2-38.6,5.8-57.7c-1.4,0.2-2.9,0.4-4.3,0.6c3.7,13.4,7.5,26.7,11.2,40.1c0.6,2,3.9,2.2,4.3,0
			c3-15.7,5.8-31.5,8.3-47.3c-1.2,0-2.5,0-3.7,0c4.8,22.7,7,45.9,9.2,69c0.3,2.8,4.6,2.8,4.3,0c-2.4-23.5-5-46.9-9.8-70
			c-0.4-1.8-3.4-1.9-3.7,0c-2.9,15.7-5.7,31.4-8.8,47.1c1.4,0,2.9,0,4.3,0c-3.7-13.4-7.5-26.7-11.3-40.1c-0.7-2.5-4.1-1.8-4.3,0.6
			c-1.5,19-4.3,38.2-4.6,57.3C188.6,96.3,191.5,96.8,191.9,95L191.9,95z"/>
	</g>
</g>
</svg>
