<?xml version="1.0" encoding="utf-8"?>
<!-- Generator: Adobe Illustrator 21.1.0, SVG Export Plug-In . SVG Version: 6.00 Build 0)  -->
<svg version="1.1" id="Layer_1" xmlns="http://www.w3.org/2000/svg" xmlns:xlink="http://www.w3.org/1999/xlink" x="0px" y="0px"
	 viewBox="0 0 165.6 124.9" style="enable-background:new 0 0 165.6 124.9;" xml:space="preserve">
<g>
	<g>
		<path d="M-678.4,134.1c-15.4,0-32-6.8-47.9-19.7c-11.9-9.6-19.2-19.1-19.5-19.5l-1.5-1.9l1.5-1.9c0.3-0.4,7.6-9.9,19.5-19.5
			c15.9-12.9,32.5-19.7,47.9-19.7c15.4,0,32,6.8,47.9,19.7c11.9,9.6,19.2,19.1,19.5,19.5l1.5,1.9l-1.5,1.9
			c-0.3,0.4-7.6,9.9-19.5,19.5C-646.5,127.3-663,134.1-678.4,134.1z M-739.2,92.9c6.4,7.6,31.5,34.8,60.8,34.8
			c29.3,0,54.4-27.3,60.8-34.8c-6.4-7.6-31.5-34.8-60.8-34.8C-707.7,58.1-732.8,85.4-739.2,92.9z"/>
	</g>
	<g>
		<circle cx="-678.4" cy="92.9" r="24.7"/>
	</g>
	<g>
		<path d="M-744.1,95c-0.8,0-1.6-0.3-2.2-0.9l-13.9-13.9c-1.2-1.2-1.2-3.2,0-4.5c1.2-1.2,3.2-1.2,4.5,0l13.9,13.9
			c1.2,1.2,1.2,3.2,0,4.5C-742.5,94.7-743.3,95-744.1,95z"/>
	</g>
	<g>
		<path d="M-711.8,67.8c-1.1,0-2.2-0.6-2.7-1.6l-9.9-17.1c-0.9-1.5-0.4-3.5,1.2-4.3c1.5-0.9,3.5-0.4,4.3,1.2l9.9,17.1
			c0.9,1.5,0.4,3.5-1.2,4.3C-710.8,67.6-711.3,67.8-711.8,67.8z"/>
	</g>
	<g>
		<path d="M-612.7,95c-0.8,0-1.6-0.3-2.2-0.9c-1.2-1.2-1.2-3.2,0-4.5l13.9-13.9c1.2-1.2,3.2-1.2,4.5,0c1.2,1.2,1.2,3.2,0,4.5
			l-13.9,13.9C-611.1,94.7-611.9,95-612.7,95z"/>
	</g>
	<g>
		<path d="M-645,67.8c-0.5,0-1.1-0.1-1.6-0.4c-1.5-0.9-2-2.8-1.2-4.3l9.9-17.1c0.9-1.5,2.8-2,4.3-1.2c1.5,0.9,2,2.8,1.2,4.3
			l-9.9,17.1C-642.8,67.2-643.9,67.8-645,67.8z"/>
	</g>
	<g>
		<path d="M-678.4,56.2c-1.7,0-3.2-1.4-3.2-3.2V33.3c0-1.7,1.4-3.2,3.2-3.2c1.7,0,3.2,1.4,3.2,3.2V53
			C-675.2,54.8-676.7,56.2-678.4,56.2z"/>
	</g>
	<g>
		<path d="M-721.7,140.9c-0.5,0-1.1-0.1-1.6-0.4c-1.5-0.9-2-2.8-1.2-4.3l9.9-17.1c0.9-1.5,2.8-2,4.3-1.2c1.5,0.9,2,2.8,1.2,4.3
			l-9.9,17.1C-719.5,140.3-720.6,140.9-721.7,140.9z"/>
	</g>
	<g>
		<path d="M-635.1,140.9c-1.1,0-2.2-0.6-2.7-1.6l-9.9-17.1c-0.9-1.5-0.4-3.5,1.2-4.3c1.5-0.9,3.5-0.4,4.3,1.2l9.9,17.1
			c0.9,1.5,0.4,3.5-1.2,4.3C-634,140.7-634.6,140.9-635.1,140.9z"/>
	</g>
	<g>
		<path d="M-678.4,155.1c-1.7,0-3.2-1.4-3.2-3.2v-19.7c0-1.7,1.4-3.2,3.2-3.2c1.7,0,3.2,1.4,3.2,3.2v19.7
			C-675.2,153.7-676.7,155.1-678.4,155.1z"/>
	</g>
</g>
<g>
	<g>
		<path d="M-776.9,188.6c-1,4.8-0.5,10-0.4,14.9c0.1,5,0,10.1,0.8,15c0.3,2,3.2,1.3,3.3-0.5c0.4-5.2-0.1-10.5-0.3-15.7
			c-0.2-4.6,0-9.3-1.3-13.8C-775,187.6-776.6,187.5-776.9,188.6L-776.9,188.6z"/>
	</g>
	<g>
		<path d="M-778.3,172.8c-1.6,0.6-2.9,1.3-3.6,2.9c-0.7,1.5-0.5,3.3,0.3,4.7c1.7,3,5.6,4.2,8.5,2.1c2.5-1.9,3.4-5.6,1.6-8.2
			c-1.7-2.5-5.6-3.6-8.1-1.7c-1.1,0.9-0.5,2.8,1,2.4c2.3-0.5,5.7,1.4,3.6,4c-0.9,1.1-2.2,1.1-3.2,0.1c-1.2-1.3-0.5-3.2,0.8-4.1
			C-776.3,174.3-776.9,172.3-778.3,172.8L-778.3,172.8z"/>
	</g>
	<g>
		<path d="M-749.6,190.5c-0.8-8.8-17.3-3.5-19.4,2.4c-1.6,4.5,4.1,6.6,7.3,8.2c2.7,1.4,5.5,2.8,8,4.6c1.7,1.2,3.7,2.8,4.3,4.9
			c1.9,6.7-9.6,7.8-11.1,1.8c-0.6-2.5-4.3-1.4-3.8,1.1c2,10,21.5,8.9,19.5-2c-1-5.4-6.1-9.1-10.6-11.6c-2.1-1.2-7.3-2.6-8.5-4.6
			c-2.7-4.6,10.9-8,12.2-4.6C-751.4,191.9-749.5,191.8-749.6,190.5L-749.6,190.5z"/>
	</g>
	<g>
		<path d="M-733.9,186.3c0.1-0.1,0.1-0.2,0.2-0.3c-0.6,0.1-1.1,0.3-1.7,0.4c-0.9-0.6,0.1-1.3-0.6-0.5c-0.7,0.7-0.9,3-1.1,3.9
			c-0.7,2.6-1.2,5.3-1.6,8c-0.6,4.1-1.1,8.6,0.4,12.5c2,5.3,8.5,8.9,13.3,4.8c1.3-1.1-0.1-3.2-1.6-2.8c-14.2,4.1-6.3-20.7-5.6-26.6
			c0.1-0.6-0.4-1.3-0.9-1.6c-0.1-0.1-0.2-0.1-0.4-0.2c-0.4-0.3-1.1-0.3-1.5,0c-0.1,0.1-0.2,0.2-0.4,0.3c-0.4,0.3-0.7,0.8-0.6,1.4
			c0,0.1,0.1,0.2,0.1,0.3C-735.6,187-734.4,187-733.9,186.3L-733.9,186.3z"/>
	</g>
	<g>
		<path d="M-743.5,197.5c-0.1-0.1-0.1-0.1-0.2-0.2c-0.2-0.3-0.7-0.4-1.1-0.3c-0.1,0.1-0.3,0.1-0.4,0.2c-0.9,0.2-1.4,1.4-0.9,2.2
			c1.7,2.4,5.6,1,8.1,0.7c4.8-0.7,9.9-1.7,14.3-3.8c2.1-1,0.6-4-1.5-3.5c-3.2,0.7-6.3,1.8-9.4,2.6c-1.5,0.4-2.9,0.7-4.4,1
			c-0.9,0.2-4.4,1.4-5.1,1c0.1,0.6,0.2,1.2,0.2,1.8c-0.2,0-0.4,0.1-0.6,0.1C-743.5,199.5-742.9,198.1-743.5,197.5L-743.5,197.5z"/>
	</g>
	<g>
		<path d="M-717.9,193c-1.6,2.9-1.6,6.4-1.9,9.6c-0.4,4.1-1.1,8.3-1.1,12.4c0,2.1,3.3,2.7,3.8,0.5c0.7-3.7,0.9-7.5,1.2-11.3
			c0.3-3.6,1.2-7.6,0.1-11C-716.2,192.4-717.4,192.1-717.9,193L-717.9,193z"/>
	</g>
	<g>
		<path d="M-719.1,197.5c1.1-2,2.2-3.9,4-5.4c1.3-1.1,2.7-1.8,4.3-2.3c2.5,1.4,2.9,3,1.1,4.9c-2.1,3.4-6.2,5.1-8.2,8.3
			c-1,1.6-0.8,3.2,0.6,4.5c1.1,1.1,3.1,1.5,4.4,2.4c2.3,1.6,3.8,3.7,5.1,6.1c1.3,2.2,4.4,0.3,3.4-2c-1.1-2.5-2.7-4.6-4.9-6.4
			c-0.8-0.7-2.2-1.2-3-1.9c-1.6-1.8-1.2-0.1-0.2-2c0.6-1.3,2.8-2.5,3.7-3.7c0.8-1,1.7-2.1,2.4-3.2c1.1-1.9,2-4,1.6-6.2
			c-0.7-3.6-3.8-4.7-7-3.6c-4.5,1.4-7.9,5.5-8.8,10C-720.9,197.7-719.6,198.4-719.1,197.5L-719.1,197.5z"/>
	</g>
	<g>
		<path d="M-702,191.4c1.2,6.6,4.5,14.1,8.5,19.5c1.5,2.1,4.7,0.3,3.5-2c-1.5-3.1-3.3-6.1-4.8-9.2c-1.5-3.1-2.6-6.4-4-9.5
			C-699.8,188.2-702.4,189.6-702,191.4L-702,191.4z"/>
	</g>
	<g>
		<path d="M-686.3,185.6c-5.8,17.3-10.8,35.4-15.5,53c-0.6,2.2,2.7,3.1,3.4,0.9c6.2-17,11.5-35.5,14.6-53.3
			C-683.5,184.6-685.8,184-686.3,185.6L-686.3,185.6z"/>
	</g>
	<g>
		<path d="M-661.9,165.4c-0.6,16-2.3,32.1-2.7,48.1c-0.1,2,3,2.4,3.5,0.5c3.4-15.4,3.6-32.8,2.7-48.5
			C-658.6,163.2-661.8,163.2-661.9,165.4L-661.9,165.4z"/>
	</g>
	<g>
		<path d="M-664.2,169.5c3-1.7,6.1-3.4,9.3-4.8c5-2.1,8.1-3.3,13-0.4c5.3,3.1,5.8,7.1,4.6,13.1c-0.6,3.1-1.9,6-3.4,8.8
			c-5.9,10.9-15.3,19.9-24.2,28.4c-1.8,1.7,0.9,4.3,2.7,2.7c12-10.6,30.5-28.1,29-45.9c-1.6-19.3-22.4-11.5-32.5-4.2
			C-667,168.1-665.8,170.4-664.2,169.5L-664.2,169.5z"/>
	</g>
	<g>
		<path d="M-631.5,193.7c0.2-0.2,0.4-0.5,0.6-0.7c-0.7-0.7-1.4-1.4-2.1-2.1c-2,3.4-3.2,7.2-4.1,11.1c-0.6,2.6-1.5,5.7,0,8.2
			c3.2,5.3,9.8,2.6,13.4-0.4c1.7-1.4-0.5-3.7-2.2-2.9c-1.7,0.8-3.7,2.2-5.6,2c-3.2-0.3-2.1-3.8-1.7-5.9c0.7-3.7,2-7.3,3-11
			c0.5-1.8-1.8-2.5-2.8-1.2c-0.6,0.8-0.6,0.8-0.8,1.8C-634.1,194-632.3,194.9-631.5,193.7L-631.5,193.7z"/>
	</g>
	<g>
		<path d="M-635.8,196c2.4-1.4,4.8-2.8,7.2-4.2c2.2-1.3,4.7-2.4,6.4-4.3c0.9-1,0-2.9-1.4-2.4c-2.4,0.7-4.5,2.5-6.6,3.9
			c-2.3,1.5-4.6,3.1-6.9,4.6C-638.7,194.6-637.4,196.9-635.8,196L-635.8,196z"/>
	</g>
	<g>
		<path d="M-635.8,204.2c3.4-1,6.6-2.4,9.6-4.2c1.8-1.1,0.2-3.9-1.6-2.8c-2.8,1.6-5.7,3-8.7,4.2
			C-638.2,202.1-637.6,204.8-635.8,204.2L-635.8,204.2z"/>
	</g>
	<g>
		<path d="M-609.9,189.2c1.1-2.8-1.5-3.6-3.8-3.4c-3.5,0.4-6.6,2.4-8.9,4.9c-1,1.1-0.8,2.8,0.5,3.6c3.2,1.9,6.7,3.7,9.8,5.8
			c5.3,3.6-2.7,3.8-5.4,3.7c-1.6-0.1-1.9,2-0.8,2.8c3.7,2.7,12.3,1.6,12.8-4c0.2-2.4-1.6-4.4-3.4-5.7c-3.3-2.5-7.2-4.5-10.7-6.6
			c0.2,1.2,0.3,2.4,0.5,3.6c1.1-1.3,2.2-2.3,3.7-3.2c0.5-0.3,3.3-1.9,3.9-1.5c-0.2-0.4-0.5-0.9-0.7-1.3c0,0.2,0,0.5,0,0.7
			C-612.5,190.5-610.4,190.6-609.9,189.2L-609.9,189.2z"/>
	</g>
	<g>
		<path d="M-602.5,188.9c0.2,5.6,0.3,11.4,0.9,16.9c0.2,1.8,3.1,2.6,3.5,0.5c1-5.6,0.4-12.3-1.1-17.8
			C-599.7,186.7-602.6,187-602.5,188.9L-602.5,188.9z"/>
	</g>
	<g>
		<path d="M-603.4,173c-2,1.4-3.2,3.9-2.4,6.3c0.8,2.2,3.3,3.4,5.5,2.8c2.4-0.7,3.7-3.3,2.5-5.6c-1.1-2.1-4.3-3.5-6.5-2.5
			c-1.5,0.7-0.9,2.9,0.4,3.4c0.5,0.2,1.1,0.1,1.6,0.3c0.4,0.1,0.7,0.4,1,0.6c0.1,0,0.2,0.1,0,0.2c0.3-0.3-0.1-0.1-0.3-0.1
			c-0.3,0-0.7,0-0.9-0.6c-0.3-0.9,0.2-1.9,0.8-2.5C-600.6,174.1-602,172-603.4,173L-603.4,173z"/>
	</g>
	<g>
		<path d="M-578.1,190.1c0.1-0.1,0.3-0.2,0.4-0.4c0.5-0.4,0.8-1.3,0.5-1.9c-1.9-4.9-7-3.3-10.2-0.5c-3.6,3.1-5.8,8-4.6,12.8
			c1.1,4.1,4.7,7.8,9.1,7.9c4.1,0.1,8.9-2.8,8.8-7.3c0-2-2.6-2.6-3.7-1c-1.2,1.7-2.2,3.4-4.5,3.5c-2.6,0.2-4.5-2-5.2-4.3
			c-0.9-3.4,3.3-12,7.3-8.7C-579.5,190.6-578.7,190.6-578.1,190.1L-578.1,190.1z"/>
	</g>
	<g>
		<path d="M-582.5,200c3.5-0.7,7-1.2,10.4-2.3c1.3-0.5,1.1-3.6-0.3-3.4c-3.6,0.6-7.1,2-10.6,3.1C-584.3,197.8-583.7,200.3-582.5,200
			L-582.5,200z"/>
	</g>
	<g>
		<path d="M-568.5,186.5c0.1,7.2-0.2,15.7,1.7,22.6c0.6,2.4,3.7,1.6,4-0.5c0.9-6.9-0.6-15.2-1.5-22.1
			C-564.7,184-568.5,183.8-568.5,186.5L-568.5,186.5z"/>
	</g>
	<g>
		<path d="M-568.1,185.3c3.1,7.7,7.1,16.2,11.9,22.9c1.2,1.7,4.6,0.7,3.7-1.5c-3.1-7.7-8.2-15.6-13.1-22.4
			C-566.5,183.2-568.7,183.8-568.1,185.3L-568.1,185.3z"/>
	</g>
	<g>
		<path d="M-554,182.7c-1.5,8.6-2,17.7-2.3,26.5c-0.1,2.6,3.7,2.5,3.9,0c0.9-8.5,1.5-17.5,1.2-26.1
			C-551.3,181.5-553.7,181-554,182.7L-554,182.7z"/>
	</g>
	<g>
		<path d="M-822.1,214.5c3.5-18.9,4.2-38.6,5.8-57.7c-1.4,0.2-2.9,0.4-4.3,0.6c3.7,13.4,7.5,26.7,11.2,40.1c0.6,2,3.9,2.2,4.3,0
			c3-15.7,5.8-31.5,8.3-47.3c-1.2,0-2.5,0-3.7,0c4.8,22.7,7,45.9,9.2,69c0.3,2.8,4.6,2.8,4.3,0c-2.4-23.5-5-46.9-9.8-70
			c-0.4-1.8-3.4-1.9-3.7,0c-2.9,15.7-5.7,31.4-8.8,47.1c1.4,0,2.9,0,4.3,0c-3.7-13.4-7.5-26.7-11.3-40.1c-0.7-2.5-4.1-1.8-4.3,0.6
			c-1.5,19-4.3,38.2-4.6,57.3C-825.3,215.9-822.4,216.4-822.1,214.5L-822.1,214.5z"/>
	</g>
</g>
<g>
	<g>
		<path d="M-172.8,103.9c-15.4,0-32-6.8-47.9-19.7c-11.9-9.6-19.2-19.1-19.5-19.5l-1.5-1.9l1.5-1.9c0.3-0.4,7.6-9.9,19.5-19.5
			c15.9-12.9,32.5-19.7,47.9-19.7c15.4,0,32,6.8,47.9,19.7c11.9,9.6,19.2,19.1,19.5,19.5l1.5,1.9l-1.5,1.9
			c-0.3,0.4-7.6,9.9-19.5,19.5C-140.9,97.1-157.4,103.9-172.8,103.9z M-233.6,62.8c6.4,7.6,31.5,34.8,60.8,34.8s54.4-27.3,60.8-34.8
			c-6.4-7.6-31.5-34.8-60.8-34.8S-227.2,55.2-233.6,62.8z"/>
	</g>
	<g>
		<circle cx="-172.8" cy="62.8" r="24.7"/>
	</g>
	<g>
		<path d="M-238.5,64.8c-0.8,0-1.6-0.3-2.2-0.9L-254.7,50c-1.2-1.2-1.2-3.2,0-4.5c1.2-1.2,3.2-1.2,4.5,0l13.9,13.9
			c1.2,1.2,1.2,3.2,0,4.5C-236.9,64.5-237.7,64.8-238.5,64.8z"/>
	</g>
	<g>
		<path d="M-206.2,37.6c-1.1,0-2.2-0.6-2.7-1.6l-9.9-17.1c-0.9-1.5-0.4-3.5,1.2-4.3c1.5-0.9,3.5-0.4,4.3,1.2l9.9,17.1
			c0.9,1.5,0.4,3.5-1.2,4.3C-205.2,37.5-205.7,37.6-206.2,37.6z"/>
	</g>
	<g>
		<path d="M-107.1,64.8c-0.8,0-1.6-0.3-2.2-0.9c-1.2-1.2-1.2-3.2,0-4.5l13.9-13.9c1.2-1.2,3.2-1.2,4.5,0c1.2,1.2,1.2,3.2,0,4.5
			l-13.9,13.9C-105.5,64.5-106.3,64.8-107.1,64.8z"/>
	</g>
	<g>
		<path d="M-139.4,37.6c-0.5,0-1.1-0.1-1.6-0.4c-1.5-0.9-2-2.8-1.2-4.3l9.9-17.1c0.9-1.5,2.8-2,4.3-1.2c1.5,0.9,2,2.8,1.2,4.3
			l-9.9,17.1C-137.2,37-138.3,37.6-139.4,37.6z"/>
	</g>
	<g>
		<path d="M-172.8,26c-1.7,0-3.2-1.4-3.2-3.2V3.2c0-1.7,1.4-3.2,3.2-3.2c1.7,0,3.2,1.4,3.2,3.2v19.7C-169.6,24.6-171.1,26-172.8,26z
			"/>
	</g>
	<g>
		<path d="M-216.1,110.7c-0.5,0-1.1-0.1-1.6-0.4c-1.5-0.9-2-2.8-1.2-4.3l9.9-17.1c0.9-1.5,2.8-2,4.3-1.2c1.5,0.9,2,2.8,1.2,4.3
			l-9.9,17.1C-213.9,110.1-215,110.7-216.1,110.7z"/>
	</g>
	<g>
		<path d="M-129.5,110.7c-1.1,0-2.2-0.6-2.7-1.6l-9.9-17.1c-0.9-1.5-0.4-3.5,1.2-4.3c1.5-0.9,3.5-0.4,4.3,1.2l9.9,17.1
			c0.9,1.5,0.4,3.5-1.2,4.3C-128.4,110.6-129,110.7-129.5,110.7z"/>
	</g>
	<g>
		<path d="M-172.8,124.9c-1.7,0-3.2-1.4-3.2-3.2V102c0-1.7,1.4-3.2,3.2-3.2c1.7,0,3.2,1.4,3.2,3.2v19.7
			C-169.6,123.5-171.1,124.9-172.8,124.9z"/>
	</g>
</g>
<g>
	<path d="M82.8,21c15.4,0,32,6.8,47.9,19.7c11.9,9.6,19.2,19.1,19.5,19.5l1.5,1.9l-1.5,1.9c-0.3,0.4-7.6,9.9-19.5,19.5
		c-15.9,12.9-32.5,19.7-47.9,19.7c-15.4,0-32-6.8-47.9-19.7C23,74,15.7,64.5,15.4,64.1l-1.5-1.9l1.5-1.9c0.3-0.4,7.6-9.9,19.5-19.5
		C50.9,27.8,67.4,21,82.8,21z M143.6,62.1c-6.4-7.6-31.5-34.8-60.8-34.8S28.4,54.6,22,62.1C28.4,69.7,53.5,97,82.8,97
		S137.2,69.7,143.6,62.1z"/>
</g>
<g>
	<path d="M148.5,60.1c0.8,0,1.6,0.3,2.2,0.9l13.9,13.9c1.2,1.2,1.2,3.2,0,4.5c-1.2,1.2-3.2,1.2-4.5,0l-13.9-13.9
		c-1.2-1.2-1.2-3.2,0-4.5C146.9,60.4,147.7,60.1,148.5,60.1z"/>
</g>
<g>
	<path d="M116.2,87.3c1.1,0,2.2,0.6,2.7,1.6l9.9,17.1c0.9,1.5,0.4,3.5-1.2,4.3c-1.5,0.9-3.5,0.4-4.3-1.2l-9.9-17.1
		c-0.9-1.5-0.4-3.5,1.2-4.3C115.2,87.5,115.7,87.3,116.2,87.3z"/>
</g>
<g>
	<path d="M17.1,60.1c0.8,0,1.6,0.3,2.2,0.9c1.2,1.2,1.2,3.2,0,4.5L5.4,79.4c-1.2,1.2-3.2,1.2-4.5,0c-1.2-1.2-1.2-3.2,0-4.5L14.9,61
		C15.5,60.4,16.3,60.1,17.1,60.1z"/>
</g>
<g>
	<path d="M49.4,87.3c0.5,0,1.1,0.1,1.6,0.4c1.5,0.9,2,2.8,1.2,4.3l-9.9,17.1c-0.9,1.5-2.8,2-4.3,1.2c-1.5-0.9-2-2.8-1.2-4.3
		l9.9-17.1C47.2,87.9,48.3,87.3,49.4,87.3z"/>
</g>
<g>
	<path d="M82.8,98.9c1.7,0,3.2,1.4,3.2,3.2v19.7c0,1.7-1.4,3.2-3.2,3.2c-1.7,0-3.2-1.4-3.2-3.2V102C79.6,100.3,81.1,98.9,82.8,98.9z
		"/>
</g>
</svg>
